<svg xmlns="http://www.w3.org/2000/svg" viewBox="0 0 238.18 96.95"><defs><style>.cls-1{fill: black;}@media(prefers-color-scheme:dark){.cls-1{fill: white;}}</style></defs><g id="Layer_2" data-name="Layer 2"><g id="Layer_1-2" data-name="Layer 1"><path class="cls-1" d="M238.18,66.48a7.79,7.79,0,1,1-7.78-7.79A7.78,7.78,0,0,1,238.18,66.48Z"/><path class="cls-1" d="M238.18,41.58V57.64a11.78,11.78,0,0,0-16.62,16.63H164.92V58.7h50.16a6.91,6.91,0,1,0,0-13.81H179a13.61,13.61,0,0,1-13.6-13.61V.07h72.7V16.26H187.76a6.22,6.22,0,0,0,0,12.44H225.3A12.87,12.87,0,0,1,238.18,41.58Z"/><polygon class="cls-1" points="72.03 33.08 67.39 37.82 87.85 58.89 102.98 74.25 72.47 74.25 52.13 53.51 31.9 74.25 1.63 74.25 32.24 42.58 36.85 37.82 0 0 30.68 0 52.13 22.09 56.74 17.35 73.58 0 159.48 0 159.48 17.55 87.15 17.55 72.03 33.08"/><polygon class="cls-1" points="111.8 46.66 111.8 58.68 159.48 58.68 159.48 74.25 112 74.25 87.85 49.38 87.85 23.51 111.8 23.51 111.8 29.13 159.48 29.13 159.48 46.66 111.8 46.66"/><path class="cls-1" d="M4.43,96.43A4.42,4.42,0,0,1,2.59,95a3.8,3.8,0,0,1-.69-2.16H4a2.73,2.73,0,0,0,.87,1.77,3.09,3.09,0,0,0,2.22.72,3.23,3.23,0,0,0,2.2-.7,2.27,2.27,0,0,0,.8-1.79,2,2,0,0,0-.47-1.39,3.1,3.1,0,0,0-1.18-.82c-.47-.18-1.11-.38-1.91-.6a16.55,16.55,0,0,1-2.37-.77A3.8,3.8,0,0,1,2.62,88,3.57,3.57,0,0,1,2,85.8a3.88,3.88,0,0,1,.62-2.17,4.07,4.07,0,0,1,1.75-1.46A6.2,6.2,0,0,1,7,81.65a5.35,5.35,0,0,1,3.44,1.06A3.88,3.88,0,0,1,11.9,85.5H9.76A2.31,2.31,0,0,0,8.86,84a3.24,3.24,0,0,0-2.11-.65,3,3,0,0,0-2,.63A2.14,2.14,0,0,0,4,85.73a1.91,1.91,0,0,0,.46,1.33,2.83,2.83,0,0,0,1.13.78c.46.18,1.09.39,1.9.62a18.85,18.85,0,0,1,2.39.8,4,4,0,0,1,1.54,1.22,3.56,3.56,0,0,1,.64,2.25,3.92,3.92,0,0,1-.58,2.06,4.2,4.2,0,0,1-1.71,1.56,5.67,5.67,0,0,1-2.68.6A6.4,6.4,0,0,1,4.43,96.43Z"/><path class="cls-1" d="M35.93,96a7.18,7.18,0,0,1-2.71-2.73,8.24,8.24,0,0,1,0-7.87,7.18,7.18,0,0,1,2.71-2.73,8,8,0,0,1,7.62,0,7,7,0,0,1,2.7,2.72,8.36,8.36,0,0,1,0,7.89A7,7,0,0,1,43.55,96a8,8,0,0,1-7.62,0Zm6.62-1.45a5.16,5.16,0,0,0,2-2.08,7.21,7.21,0,0,0,0-6.28,5.24,5.24,0,0,0-2-2.07,5.85,5.85,0,0,0-5.66,0,5.22,5.22,0,0,0-2,2.07,7.21,7.21,0,0,0,0,6.28,5.14,5.14,0,0,0,2,2.08,5.81,5.81,0,0,0,5.64,0Z"/><path class="cls-1" d="M76.29,81.85v1.59h-6.5v5h5.28v1.59H69.79V96.8h-2v-15Z"/><path class="cls-1" d="M105.88,81.85v1.59h-4.07V96.8h-2V83.44H95.76V81.85Z"/><path class="cls-1" d="M145.11,81.85l-4.34,15h-2.19l-3.47-12-3.61,12-2.16,0-4.19-15h2.08l3.26,12.68,3.61-12.68h2.19l3.43,12.64L143,81.85Z"/><path class="cls-1" d="M174.12,93.48h-6.53l-1.2,3.32h-2.06l5.41-14.87H172l5.39,14.87h-2.06Zm-.56-1.59-2.71-7.55-2.7,7.55Z"/><path class="cls-1" d="M205.64,96.8l-3.57-6.11h-2.36V96.8h-2v-15h4.83a6.34,6.34,0,0,1,2.86.58A4,4,0,0,1,207.2,84a4.35,4.35,0,0,1,.58,2.26,4.42,4.42,0,0,1-.89,2.72,4.33,4.33,0,0,1-2.67,1.57L208,96.8Zm-5.93-7.68h2.88a3.26,3.26,0,0,0,2.38-.78,2.8,2.8,0,0,0,.79-2.09,2.67,2.67,0,0,0-.78-2.06,3.39,3.39,0,0,0-2.39-.73h-2.88Z"/><path class="cls-1" d="M230.78,83.44v5h5.45V90h-5.45v5.15h6.1V96.8h-8v-15h8v1.61Z"/><path class="cls-1" d="M238.18,66.48a7.79,7.79,0,1,1-7.78-7.79A7.78,7.78,0,0,1,238.18,66.48Z"/><path class="cls-1" d="M238.18,66.48a7.79,7.79,0,1,1-7.78-7.79A7.78,7.78,0,0,1,238.18,66.48Z"/></g></g></svg>
